<?xml version="1.0" encoding="iso-8859-1"?>
<!-- Uploaded to: SVG Repo, www.svgrepo.com, Generator: SVG Repo Mixer Tools -->
<svg height="800px" width="800px" version="1.1" id="Layer_1" xmlns="http://www.w3.org/2000/svg" xmlns:xlink="http://www.w3.org/1999/xlink" 
	 viewBox="0 0 496.8 496.8" xml:space="preserve">
<path style="fill:#E83888;" d="M496,224c0-7.2-4.8-13.6-12-15.2l-45.6-11.2l33.6-32.8c5.6-4.8,6.4-12.8,2.4-19.2l-24-41.6
	c-4-6.4-11.2-9.6-18.4-7.2l-45.6,12.8L400,63.2c1.6-7.2-0.8-14.4-7.2-18.4l-41.6-24c-6.4-4-14.4-2.4-19.2,2.4l-32.8,33.6L288,11.2
	C285.6,4.8,279.2,0,272,0h-48c-7.2,0-13.6,4.8-15.2,12l-11.2,45.6L164,24c-4.8-5.6-12.8-6.4-19.2-2.4l-41.6,24
	C96.8,48.8,93.6,56,96,63.2l12.8,45.6L63.2,96c-7.2-1.6-14.4,0.8-18.4,7.2l-24,41.6c-4,6.4-2.4,14.4,2.4,19.2l33.6,32.8L11.2,208
	C4.8,210.4,0,216.8,0,224v48c0,7.2,4.8,13.6,12,15.2l45.6,11.2L24,332c-5.6,4.8-6.4,12.8-2.4,19.2l24,41.6
	c3.2,6.4,10.4,9.6,17.6,7.2l45.6-12.8L96,432.8c-1.6,7.2,0.8,14.4,7.2,18.4l41.6,24c6.4,4,14.4,2.4,19.2-2.4l32.8-33.6l11.2,45.6
	c1.6,7.2,8,12,15.2,12h48c7.2,0,13.6-4.8,15.2-12l11.2-45.6l32.8,33.6c4.8,5.6,12.8,6.4,19.2,2.4l41.6-24c6.4-4,9.6-11.2,7.2-18.4
	l-12.8-45.6l45.6,12.8c7.2,1.6,14.4-0.8,18.4-7.2l24-41.6c4-6.4,2.4-14.4-2.4-19.2l-33.6-32.8l45.6-11.2c7.2-1.6,12-8,12-15.2
	L496,224z"/>

	c0-2.4-1.6-4-4-4h-40.8v-28.8h43.2c2.4,0,4-1.6,4-4v-12.8c0-2.4-1.6-4-4-4h-59.2h-3.2H252c-2.4,0-4,1.6-4,4v14.4
	c-1.6-3.2-4-6.4-6.4-8.8c-8-7.2-18.4-9.6-36-9.6c-4.8,0-11.2,0-16.8,0.8H188h-2.4l18.4,18.4c0.8,0,1.6,0,2.4,0
	c15.2,0,22.4,6.4,22.4,17.6c0,2.4-0.8,4-0.8,6.4l15.2,15.2c1.6-2.4,3.2-4,4.8-7.2v12l22.4,22.4v-16H296c2.4,0,4-1.6,4-4v-12
	c0-2.4-1.6-4-4-4h-25.6v-28.8h44v82.4H288l20,20h8C317.6,309.6,317.6,309.6,318.4,309.6z"/>
</svg>